<svg xmlns="http://www.w3.org/2000/svg" version="1.1" xmlns:xlink="http://www.w3.org/1999/xlink" x="0" y="0" viewBox="0 0 512 512" style="enable-background:new 0 0 512 512" xml:space="preserve" class=""><g><path d="M174.1 288.8c0-3 2.4-5.4 5.4-5.4h138.7c3 0 5.4 2.4 5.4 5.4s-2.4 5.4-5.4 5.4H179.5c-3 0-5.4-2.4-5.4-5.4zm5.4-29.3h138.7c3 0 5.4-2.4 5.4-5.4s-2.4-5.4-5.4-5.4H179.5c-3 0-5.4 2.4-5.4 5.4 0 2.9 2.4 5.4 5.4 5.4zm0 69.5h138.7c3 0 5.4-2.4 5.4-5.4s-2.4-5.4-5.4-5.4H179.5c-3 0-5.4 2.4-5.4 5.4 0 2.9 2.4 5.4 5.4 5.4zm144.1 32.8V446c0 3-2.4 5.4-5.4 5.4H179.4c-3 0-5.4-2.4-5.4-5.4v-84.2c0-3 2.4-5.4 5.4-5.4h138.7c3 0 5.5 2.4 5.5 5.4zm-10.8 5.4h-128v73.4h127.9zM347.6 36v107.5c0 3-2.4 5.4-5.4 5.4H155.4c-3 0-5.4-2.4-5.4-5.4V36c0-3 2.4-5.4 5.4-5.4h186.8c3 0 5.4 2.5 5.4 5.4zm-10.8 5.4h-176v96.7h176zm162.1 138.2v74.6c0 9.5-7.8 17.3-17.3 17.3h-5.2v8.1c0 10.4-8.4 18.8-18.8 18.8h-.5v148.1c0 11.6-4.5 22.4-12.7 30.6s-19 12.7-30.6 12.7c-23.8 0-43.2-19.4-43.2-43.3v-19.6h-8.9V469c0 11.4-9.3 20.7-20.7 20.7h-.6v16.9c0 3-2.4 5.4-5.4 5.4h-27c-3 0-5.4-2.4-5.4-5.4v-16.9H194.9v16.9c0 3-2.4 5.4-5.4 5.4h-27c-3 0-5.4-2.4-5.4-5.4v-16.9h-.6c-11.4 0-20.7-9.3-20.7-20.7V332.5h-8.9v19.6c0 23.9-19.4 43.3-43.2 43.3-11.5 0-22.4-4.5-30.6-12.7s-12.7-19-12.7-30.6V212c-6.7-.8-13.2-3.1-19.1-7.1-5.2-3.5-8.3-9.4-8.3-15.9v-30.7c0-5.3 2.2-10.3 6-14l13.5-12.8c7.4-7 19-7 26.4 0l13.5 12.8c3.8 3.6 6 8.7 6 14V189c0 6.5-3.1 12.4-8.3 15.9-5.8 3.9-12.4 6.2-19 7.1v140.1c0 8.7 3.4 16.8 9.5 23 6.1 6.1 14.3 9.5 22.9 9.5 17.9 0 32.4-14.6 32.4-32.5v-19.6h-4.4c-11.4 0-20.6-9.2-20.6-20.6v-17.4c0-11.4 9.2-20.6 20.6-20.6h24V231c0-11.4 9.3-20.7 20.7-20.7h26.5v-30.8h-42.8c-11.4 0-20.7-9.3-20.7-20.7V20.7c0-11.4 9.3-20.7 20.7-20.7h217.4C368.7 0 378 9.3 378 20.7v138.1c0 11.4-9.3 20.7-20.7 20.7h-42.8v30.8H341c11.4 0 20.7 9.3 20.7 20.7v137.1h24c11.4 0 20.6 9.2 20.6 20.6v17.4c0 11.4-9.3 20.6-20.6 20.6h-4.4v19.6c0 17.9 14.5 32.5 32.4 32.5 8.7 0 16.8-3.4 22.9-9.5s9.5-14.3 9.5-23V298.4h-.5c-10.4 0-18.8-8.4-18.8-18.8v-8.1h-5.2c-9.5 0-17.3-7.8-17.3-17.3v-74.6c0-9.5 7.8-17.3 17.3-17.3h59.8c9.8 0 17.5 7.7 17.5 17.3zm-358.8-10.8h217.4c5.5 0 9.9-4.5 9.9-9.9V20.7c0-5.5-4.5-9.9-9.9-9.9H140.1c-5.5 0-9.9 4.5-9.9 9.9v138.1c0 5.5 4.4 10 9.9 10zm163.8 41.5v-30.8H193.7v30.8zM27.3 196c11 7.4 25.9 7.4 36.9 0 2.1-1.4 3.5-4.1 3.5-6.9v-30.7c0-2.3-1-4.5-2.6-6.1l-13.5-12.8c-1.6-1.5-3.7-2.3-5.8-2.3s-4.2.8-5.8 2.3l-13.5 12.8c-1.7 1.6-2.6 3.8-2.6 6.1v30.7c0 2.8 1.3 5.5 3.4 6.9zm156.8 293.7h-16.2v11.5h16.2zm145.6 0h-16.2v11.5h16.2zm-194-168v-37h-24c-5.4 0-9.8 4.4-9.8 9.8v17.4c0 5.4 4.4 9.8 9.8 9.8zM351.1 469V231.1c0-5.5-4.5-9.9-9.9-9.9H156.4c-5.5 0-9.9 4.5-9.9 9.9V469c0 5.5 4.5 9.9 9.9 9.9h184.7c5.5 0 10-4.5 10-9.9zm10.8-53h24c5.4 0 9.8-4.4 9.8-9.8v-17.4c0-5.4-4.4-9.8-9.8-9.8h-24zm103.7-144.5h-27.8v8.1c0 4.4 3.6 8 8 8H457.6c4.4 0 8-3.6 8-8zm22.5-91.9c0-3.6-2.9-6.5-6.5-6.5h-59.8c-3.6 0-6.5 2.9-6.5 6.5v74.6c0 3.6 2.9 6.5 6.5 6.5h59.8c3.6 0 6.5-2.9 6.5-6.5z" opacity="1" data-original="#000000" class=""></path></g></svg>