<?xml version="1.0" encoding="UTF-8" standalone="no"?>
<!-- Created with Inkscape (http://www.inkscape.org/) -->

<svg
   width="91.47216mm"
   height="79.409821mm"
   viewBox="0 0 91.47216 79.409821"
   version="1.1"
   id="svg5"
   xmlns="http://www.w3.org/2000/svg"
   xmlns:svg="http://www.w3.org/2000/svg">
  <defs
     id="defs2" />
  <g
     id="layer1"
     transform="translate(-73.601611,-55.897214)">
    <path
       style="fill:#000000;stroke-width:0.264583"
       d="m 83.279553,129.00048 c -3.03244,-8.10169 -5.048086,-13.12553 -5.88391,-14.66516 -0.658869,-1.21368 -1.061492,-1.52138 -2.599634,-1.98675 -0.436563,-0.13208 -0.793751,-0.41587 -0.793751,-0.63065 0,-0.32979 0.874127,-0.4016 5.622397,-0.46191 5.385558,-0.0684 5.622396,-0.0501 5.622396,0.43472 0,0.55295 -0.48774,0.82732 -1.470749,0.82732 -0.961468,0 -1.531732,1.0533 -1.303059,2.4068 0.275332,1.62968 4.399007,13.50845 4.884091,14.06925 0.186591,0.21571 4.552313,-11.76611 5.055108,-13.87386 0.375299,-1.57328 0.104416,-2.08233 -1.389225,-2.61068 -0.647019,-0.22887 -1.145958,-0.57446 -1.145958,-0.79375 0,-0.3232 0.747317,-0.40058 4.452422,-0.46103 4.037585,-0.0659 4.444334,-0.0315 4.365626,0.36852 -0.09016,0.45825 -0.231164,0.55292 -1.862019,1.25013 -1.304502,0.55768 -2.180662,2.12584 -4.088459,7.31753 -5.416271,14.73932 -5.501982,14.94258 -6.336824,15.02723 l -0.771886,0.0783 z m 6.035101,-1.60502 c 4.954213,-13.41191 5.415218,-14.39912 7.115525,-15.23739 0.835907,-0.41211 0.789038,-0.42168 -2.055003,-0.4197 -2.25379,0.002 -2.79103,0.0673 -2.38125,0.29145 1.612731,0.88209 1.571633,2.18229 -0.233062,7.37333 -3.132314,9.00981 -3.939829,11.10656 -4.277429,11.10656 -0.371736,0 -1.060887,-1.67576 -3.753894,-9.12812 -2.347829,-6.49715 -2.520052,-8.68427 -0.740634,-9.40554 0.317168,-0.12856 -1.092225,-0.21652 -3.430398,-0.2141 -2.182813,0.002 -3.790157,0.0694 -3.571875,0.1492 0.775054,0.28333 1.650439,1.28802 2.373026,2.72356 0.727214,1.44474 6.409521,16.07131 7.266615,18.70467 0.270354,0.83065 0.571714,1.32576 0.761669,1.25137 0.172873,-0.0677 1.489893,-3.30558 2.92671,-7.19529 z m 39.207116,7.637 c -0.0815,-0.13187 -0.55823,-1.4178 -1.0594,-2.85763 -1.38654,-3.98343 -6.07457,-15.92415 -6.86218,-17.47843 -0.75163,-1.48326 -1.39591,-2.02478 -2.74324,-2.3057 -0.60942,-0.12706 -0.8599,-0.3273 -0.8599,-0.68743 0,-0.48496 0.2528,-0.50814 5.54064,-0.50814 3.8949,0 5.59657,0.0905 5.72896,0.30472 0.24118,0.39024 -0.60953,1.0182 -1.37939,1.0182 -1.10561,0 -1.50605,0.72555 -1.33001,2.40983 0.17747,1.69791 4.65008,14.3921 4.95545,14.06456 0.20161,-0.21625 2.27931,-5.9163 3.9752,-10.90575 1.46453,-4.30878 1.33993,-5.24706 -0.75595,-5.69251 -0.60821,-0.12927 -0.8599,-0.3315 -0.8599,-0.69091 0,-0.4806 0.2366,-0.50814 4.36563,-0.50814 4.16064,0 4.36562,0.0244 4.36562,0.51897 0,0.37997 -0.27828,0.5939 -1.03902,0.79874 -2.02194,0.54446 -2.57402,1.56316 -6.25865,11.54839 -4.5978,12.45988 -4.05274,11.21098 -4.89286,11.21098 -0.40856,0 -0.8095,-0.10789 -0.891,-0.23975 z m 1.97168,-2.73851 c 0.46277,-1.19961 2.01379,-5.35856 3.44671,-9.24211 3.34296,-9.06026 3.93127,-10.20081 5.64679,-10.94745 0.757,-0.32947 0.57247,-0.35885 -2.21698,-0.35297 -2.02653,0.004 -2.84904,0.0844 -2.46282,0.24 0.31894,0.12847 0.78682,0.54939 1.03973,0.93539 0.40584,0.61938 0.42238,0.88319 0.14085,2.2462 -0.34723,1.68115 -4.96745,14.78213 -5.35734,15.19118 -0.40529,0.4252 -0.70176,-0.11434 -2.10574,-3.83223 -2.17379,-5.75643 -3.69799,-10.43045 -3.86715,-11.85876 -0.14584,-1.23141 -0.0967,-1.3929 0.65076,-2.1404 l 0.8085,-0.8085 -3.74996,0.001 -3.74996,10e-4 0.85061,0.51864 c 1.03904,0.63354 1.63636,1.78479 4.00428,7.71784 1.47958,3.70722 4.96824,12.92032 5.47787,14.46633 0.2096,0.63587 0.59436,0.0669 1.44385,-2.13514 z m 19.58851,2.68924 c -2.79229,-0.54736 -5.79359,-2.71539 -7.34297,-5.30432 -2.33614,-3.90354 -2.21005,-9.46345 0.30472,-13.43637 4.12933,-6.52366 13.11777,-7.7357 18.36784,-2.47681 4.97417,4.98253 4.86997,12.56671 -0.24366,17.73488 -3.04986,3.08239 -6.92208,4.29884 -11.08593,3.48262 z m 7.25143,-1.5371 c 2.45551,-1.20885 4.57036,-3.37121 5.87103,-6.00293 0.99846,-2.02027 1.02076,-2.12925 1.02076,-4.98952 0,-2.71934 -0.0572,-3.04458 -0.81659,-4.64393 -1.69414,-3.56794 -5.08193,-6.2095 -8.31387,-6.48257 -1.10465,-0.0933 -1.25197,-0.0695 -0.61467,0.0993 1.33416,0.35351 3.11898,1.51445 3.89749,2.53513 3.80903,4.9939 3.57806,13.67636 -0.48143,18.09821 -1.37151,1.49393 -2.78007,2.1408 -4.6778,2.14824 -4.01541,0.0157 -6.49992,-2.31567 -7.63922,-7.16849 -0.91303,-3.88897 -0.63854,-7.78926 0.77269,-10.97958 0.61597,-1.39249 2.45763,-3.42072 3.70492,-4.08023 1.61544,-0.85418 0.18726,-0.56459 -1.59812,0.32404 -4.62993,2.30445 -7.44891,7.67255 -6.63075,12.62674 0.41695,2.52469 1.33808,4.49861 2.85712,6.12258 2.41655,2.58349 4.57546,3.45278 8.3163,3.34857 2.26213,-0.063 2.72755,-0.16568 4.33214,-0.95561 z m -1.31318,-0.67174 c 2.32655,-1.36345 4.0905,-5.11366 4.30143,-9.14498 0.15324,-2.92886 -0.1753,-4.81583 -1.22356,-7.02748 -1.0159,-2.14337 -2.01491,-3.25177 -3.59334,-3.98678 -4.70564,-2.19123 -9.22341,1.88654 -9.82034,8.86393 -0.17431,2.03746 0.34091,5.23206 1.21779,7.55082 1.50472,3.97899 5.74588,5.7207 9.11802,3.74449 z m -3.90523,-21.47449 c -0.0879,-0.0879 -0.31612,-0.0973 -0.50712,-0.0209 -0.21106,0.0845 -0.14837,0.14716 0.15985,0.15985 0.27892,0.0115 0.43519,-0.051 0.34727,-0.13896 z m -48.08251,23.19583 c 0,-1.06361 0.58489,-1.94872 2.59643,-3.92914 1.63816,-1.61281 2.30515,-2.51528 3.17801,-4.30005 1.41269,-2.88854 1.42312,-3.36683 0.0171,-0.78387 -1.95611,3.59349 -3.86747,5.98102 -4.3788,5.46968 -0.0836,-0.0836 0.0627,-1.1996 0.32515,-2.48008 0.34192,-1.66852 0.46815,-3.39571 0.44553,-6.09613 -0.0347,-4.14721 0.0908,-4.64632 2.24366,-8.92203 1.16692,-2.31754 3.95742,-5.16888 6.56852,-6.71173 2.84915,-1.68352 3.27641,-1.41705 1.31784,0.82189 -2.38576,2.72727 -3.58219,5.94348 -3.58219,9.62949 0,1.53156 -0.11967,2.25957 -0.4504,2.73993 -0.38569,0.56021 -0.38921,0.60495 -0.0245,0.3114 0.46839,-0.377 0.63854,0.17069 1.32096,4.25203 0.34866,2.0852 0.45927,9.30236 0.15399,10.04753 -0.17077,0.41684 -0.66552,0.46302 -4.96049,0.46302 -4.54092,0 -4.77081,-0.0247 -4.77081,-0.51194 z m 9.1741,-4.97816 c -0.0867,-2.583 -0.32665,-5.47027 -0.53327,-6.41615 -0.20662,-0.94589 -0.38986,-1.51453 -0.40721,-1.26366 -0.0628,0.9078 -1.68327,4.6128 -2.81625,6.43891 -0.63743,1.02737 -1.93852,2.58715 -2.8913,3.46617 -2.61627,2.41374 -2.55741,2.47108 2.53665,2.47108 h 4.26897 z m -4.92579,-2.77083 c 0.582,-0.97825 1.65015,-3.09068 2.37368,-4.69429 1.12249,-2.48784 1.31618,-3.15858 1.3201,-4.57136 0.01,-3.45721 1.34741,-7.46961 3.19757,-9.59023 l 0.89888,-1.03029 -1.61185,1.09044 c -3.20569,2.1687 -5.13687,4.73969 -7.00784,9.32958 -0.52334,1.28384 -0.58816,1.87581 -0.55045,5.02708 0.0242,2.02385 -0.10979,4.41455 -0.3092,5.51623 -0.34604,1.91177 -0.3437,1.93394 0.1395,1.32292 0.27029,-0.34179 0.96761,-1.42183 1.54961,-2.40008 z m -2.7731,-9.26772 c -0.0526,-0.1819 -0.24203,-1.0451 -0.42091,-1.91823 -0.46964,-2.29245 -1.71578,-5.73022 -3.06057,-8.44336 -1.66637,-3.36196 -1.54295,-3.7745 0.6479,-2.16565 2.19086,1.60886 6.12087,6.09806 6.12087,6.9918 0,0.1409 -0.33193,0.89336 -0.73761,1.67212 -0.40569,0.77876 -0.99441,2.04101 -1.30826,2.80499 -0.54875,1.33578 -1.04001,1.75458 -1.24142,1.05833 z m 2.06858,-4.55834 c 0.60024,-0.91607 0.56178,-1.05941 -0.73467,-2.7378 -1.01671,-1.31625 -4.44191,-4.80854 -4.71616,-4.80854 -0.0554,0 0.35417,0.95148 0.9102,2.1144 1.10127,2.3033 2.48908,6.32487 2.75367,7.97952 l 0.16664,1.04211 0.59769,-1.47056 c 0.32872,-0.80882 0.78891,-1.76242 1.02263,-2.11913 z m 14.01518,-7.41199 c -0.0926,-0.2413 0.63989,-1.58649 1.83863,-3.37658 6.08719,-9.090066 11.72869,-13.784566 15.67548,-13.044136 1.95534,0.36682 4.11201,3.36487 4.51016,6.26972 0.67269,4.907796 -4.50808,8.214876 -15.24157,9.729246 -5.93423,0.83726 -6.6072,0.87911 -6.7827,0.42175 z m 5.53495,-0.81264 c 6.54615,-0.82405 11.71338,-2.49395 13.93903,-4.50469 1.48299,-1.339796 1.94599,-2.321066 1.94763,-4.127786 0.001,-1.16081 -0.19244,-1.89924 -0.84502,-3.22481 -1.82164,-3.70029 -4.18253,-4.19796 -8.13313,-1.71447 -2.65287,1.66769 -8.06432,7.87576 -11.008,12.628476 l -0.98162,1.58486 0.84932,-0.10789 c 0.46713,-0.0593 2.37143,-0.2995 4.23179,-0.53369 z m -17.00851,0.6174 c -2.77498,-1.21516 -6.91404,-3.44637 -9.12812,-4.92063 -3.191079,-2.124786 -7.038123,-5.812636 -7.788019,-7.465736 -1.059174,-2.33488 -0.591266,-4.52073 1.317451,-6.15452 2.621394,-2.24382 5.938158,-2.93368 8.339268,-1.73451 3.75922,1.87745 7.26005,8.9672 8.45653,17.125876 0.5246,3.57722 0.41829,3.8569 -1.19711,3.14952 z m 0.75308,-2.12193 c -0.94001,-7.141026 -3.66237,-13.894586 -6.66286,-16.529056 -2.74403,-2.40928 -6.681598,-2.04817 -9.611221,0.88145 -1.786409,1.78641 -1.808863,3.82191 -0.07004,6.34921 1.852388,2.69235 7.018091,6.547206 12.289121,9.170636 4.53768,2.25844 4.33463,2.25204 4.055,0.12776 z m -30.548547,1.65396 c -5.553793,-0.81394 -7.710314,-3.70327 -6.302443,-8.444076 0.519141,-1.74814 2.118243,-3.5391 3.698994,-4.14279 1.611902,-0.61559 5.319633,-0.42889 7.073404,0.35619 2.645959,1.18446 7.053296,4.54108 10.971871,8.356146 1.727676,1.68205 1.96301,2.15531 1.190625,2.39437 -4.054049,1.25475 -12.837156,2.03638 -16.632451,1.48016 z m 12.597555,-1.3084 c 1.67349,-0.31514 3.138236,-0.66794 3.254994,-0.784 0.230291,-0.22892 -2.875592,-3.235286 -5.636244,-5.455646 -4.567597,-3.67367 -7.657544,-5.08253 -10.568263,-4.81859 -3.142648,0.28496 -4.981965,2.04562 -5.593624,5.35439 -0.594838,3.217766 0.863106,5.031146 4.917094,6.115816 2.038676,0.54547 9.785499,0.31125 13.626043,-0.41197 z m 24.134932,-0.74243 c -0.10458,-0.25466 -0.19014,-2.60615 -0.19014,-5.225516 0,-4.43399 0.0429,-4.85745 0.62245,-6.13892 0.34235,-0.75703 0.90371,-1.5607 1.24747,-1.78594 1.4516,-0.95112 4.45173,-0.0514 5.60242,1.68013 1.53668,2.31235 0.3257,5.39447 -3.67505,9.353576 -1.43376,1.41883 -2.78912,2.57969 -3.01192,2.57969 -0.22281,0 -0.49066,-0.20836 -0.59523,-0.46302 z m 3.57596,-2.917706 c 2.72937,-2.72937 4.01234,-5.39307 3.49683,-7.26009 -0.49849,-1.8054 -2.97002,-3.21579 -4.51431,-2.57613 -1.71032,0.70844 -2.58367,4.45698 -2.2317,9.57882 l 0.19544,2.844156 0.8109,-0.5774 c 0.44599,-0.31758 1.45527,-1.22178 2.24284,-2.009356 z m -9.13033,-8.85625 c -2.78245,-4.30401 -5.1878,-9.49989 -6.14382,-13.27149 -1.56451,-6.17212 0.45369,-9.41653 5.85761,-9.41653 3.28974,0 5.98343,1.84098 6.99888,4.78334 0.64049,1.85587 0.63454,5.68367 -0.0133,8.57812 -0.95921,4.28534 -3.97106,11.77395 -4.73537,11.77395 -0.20998,0 -1.09376,-1.10132 -1.96397,-2.44739 z m 4.21818,-3.6324 c 2.04997,-5.12306 2.83874,-10.57857 1.96436,-13.58635 -0.53591,-1.84347 -1.92939,-3.49051 -3.56876,-4.21814 -1.33327,-0.59177 -4.42156,-0.69958 -5.71622,-0.19954 -2.84915,1.10043 -3.56639,4.17449 -2.13137,9.13487 0.78006,2.69636 3.97304,9.35028 5.88149,12.25655 l 1.27249,1.93782 0.75311,-1.67323 c 0.41421,-0.92028 1.10941,-2.56367 1.5449,-3.65198 z m -32.336575,2.90385 c -2.39338,-0.22974 -4.36463,-1.0327 -4.781526,-1.94769 -0.484934,-1.06432 -0.05313,-2.52654 1.08101,-3.66069 0.889808,-0.88981 1.153172,-1.00497 2.293158,-1.00278 0.936102,0.002 1.649261,0.21161 2.610815,0.76806 1.46749,0.84924 5.773785,4.63863 5.903475,5.19486 0.140468,0.60244 -3.82037,0.96372 -7.106932,0.64824 z m 5.231183,-0.68554 0.786579,-0.15731 -1.877985,-1.7773 c -1.929478,-1.82603 -3.723103,-3.03167 -4.964416,-3.33699 -2.327941,-0.57258 -4.599798,3.04037 -2.696141,4.28769 1.37285,0.89953 6.366761,1.46095 8.751963,0.98391 z m 35.350782,-2.64113 c -0.22907,-0.59695 0.10644,-3.7851 0.71002,-6.74694 1.61285,-7.91437 4.20793,-13.21604 7.06496,-14.43348 1.10198,-0.46958 1.979,-0.45861 3.17159,0.0397 2.62541,1.09697 4.57597,3.80929 4.57597,6.36307 0,3.84392 -2.32183,6.57127 -9.78959,11.49941 -1.81901,1.2004 -3.74114,2.52295 -4.2714,2.939 -1.1145,0.87444 -1.24459,0.90463 -1.46155,0.33925 z m 5.854,-4.2119 c 7.16063,-4.79585 9.60499,-7.99041 8.84072,-11.55407 -0.53767,-2.5071 -3.21302,-4.9835 -5.38385,-4.9835 -2.62663,0 -4.98641,3.39512 -6.86463,9.87647 -0.65352,2.25515 -1.57691,6.85522 -1.83038,9.11836 l -0.12716,1.13545 0.70824,-0.47399 c 0.38953,-0.2607 2.48521,-1.66412 4.65706,-3.11872 z m 2.78937,4.31042 c 0,-0.57705 2.42573,-3.93117 3.56904,-4.93501 1.79253,-1.57386 2.97012,-1.74161 4.12423,-0.5875 0.63432,0.63432 0.7734,0.99592 0.7734,2.01084 0,1.04691 -0.13431,1.37173 -0.87231,2.10974 -1.07073,1.07073 -2.27852,1.44654 -5.27926,1.64268 -1.93697,0.12661 -2.3151,0.0873 -2.3151,-0.24075 z m 5.20262,-0.887 c 2.43064,-0.68194 3.38824,-2.63312 2.02927,-4.13477 -1.08104,-1.19454 -3.12096,0.0341 -5.36279,3.23008 l -1.15927,1.65266 1.56331,-0.18234 c 0.85983,-0.10029 2.17809,-0.35482 2.92948,-0.56563 z m -46.948302,-1.72868 c -4.252762,-0.89304 -7.910463,-2.57039 -8.900706,-4.08169 -0.486871,-0.74306 -0.547336,-2.29189 -0.121866,-3.12166 0.565619,-1.10309 1.939404,-2.30937 2.935525,-2.5776 2.217195,-0.59703 4.574985,0.80259 6.676015,3.96299 1.474885,2.21855 2.916803,5.39996 2.701604,5.96076 -0.192,0.50034 -0.237172,0.49838 -3.290572,-0.1428 z m 2.587347,-0.4292 c 0,-0.58465 -2.310659,-4.7087 -3.386357,-6.04395 -1.635505,-2.03012 -2.973503,-2.8232 -4.50765,-2.67182 -1.277804,0.12608 -2.676741,1.24642 -3.232882,2.58906 -0.889837,2.14826 1.824497,4.11702 7.819597,5.67172 2.521075,0.65379 3.307292,0.76195 3.307292,0.45499 z m 3.863181,-3.16591 c -4.41774,-3.31557 -8.809045,-7.91611 -10.24757,-10.73586 -0.690246,-1.35299 -1.020892,-3.25402 -0.73771,-4.24142 0.838171,-2.92253 6.017007,-4.53496 8.976712,-2.7949 2.037932,1.19813 3.446645,3.67803 4.204404,7.40143 0.159176,0.78215 0.467465,3.32709 0.685088,5.65543 0.21762,2.32833 0.46962,4.73935 0.55999,5.35781 0.15375,1.05213 0.12408,1.12448 -0.46112,1.12448 -0.360075,0 -1.624365,-0.7497 -2.979794,-1.76697 z m 2.457972,-2.07547 c -0.475906,-5.28995 -0.985685,-8.71304 -1.556179,-10.44951 -1.547493,-4.71025 -4.990561,-6.4544 -8.892418,-4.50462 -1.969855,0.98435 -2.617896,1.96319 -2.391801,3.61273 0.322406,2.35221 2.108911,4.93399 6.044117,8.7347 2.249315,2.17244 6.771391,5.79732 6.97643,5.59228 0.04463,-0.0446 -0.03644,-1.38814 -0.180149,-2.98558 z m 20.971752,-3.23517 c -0.69852,-1.765 -1.39617,-5.16287 -1.54486,-7.52425 -0.27141,-4.31028 0.5832,-6.03564 2.98957,-6.03564 2.3442,0 4.03755,1.17762 4.45308,3.09682 0.21474,0.99185 -0.37103,3.51761 -1.19927,5.17102 -0.89809,1.79289 -3.78439,6.01757 -4.11193,6.01866 -0.16424,5.6e-4 -0.42821,-0.32642 -0.58659,-0.72661 z m 1.73255,-1.5875 c 1.70634,-2.45758 2.9415,-4.86456 3.38535,-6.59707 0.38205,-1.49131 0.37953,-1.70543 -0.0322,-2.73434 -0.34568,-0.86395 -0.69156,-1.22756 -1.52984,-1.60827 -1.19206,-0.54137 -2.57495,-0.6442 -3.31772,-0.24668 -1.18283,0.63303 -1.64769,3.72678 -1.05731,7.03673 0.28517,1.59878 1.31231,5.67099 1.43042,5.67099 0.0357,0 0.5403,-0.68461 1.12126,-1.52136 z m -21.30702,-6.08541 c -2.831726,-2.76989 -3.744266,-4.67856 -2.948093,-6.16622 0.397301,-0.74236 1.658594,-1.30826 2.915893,-1.30826 2.25661,0 3.43066,2.20536 3.42265,6.42917 -0.007,3.79904 -0.43911,3.9322 -3.39045,1.04531 z m 2.60126,-3.08635 c -0.31617,-2.03777 -0.70508,-2.82094 -1.73641,-3.49669 -0.56811,-0.37224 -0.82875,-0.39122 -1.71718,-0.12504 -0.576075,0.1726 -1.234367,0.59915 -1.462871,0.94789 -0.383413,0.58516 -0.373357,0.72925 0.130378,1.86803 0.329343,0.74453 1.354683,2.03658 2.585153,3.25759 l 2.03931,2.02363 0.22616,-1.30091 c 0.14041,-0.80768 0.11594,-2.01125 -0.0645,-3.1745 z m 10.43675,0.49148 c -0.10104,-0.80871 -0.13081,-2.47833 -0.0661,-3.71026 0.1482,-2.8235 0.64732,-3.64269 2.29366,-3.76449 2.33053,-0.17242 3.49248,2.47238 2.08396,4.74345 -1.08558,1.75037 -3.2335,4.1997 -3.68377,4.2007 -0.34048,7.7e-4 -0.48681,-0.3418 -0.6277,-1.4694 z m 3.85204,-3.44179 c 0.6735,-1.37494 0.66272,-1.78552 -0.0684,-2.60373 -0.81682,-0.91415 -1.81806,-1.117 -2.39062,-0.48433 -0.65168,0.7201 -1.01933,3.07839 -0.82103,5.26662 l 0.17229,1.90128 1.29041,-1.50206 c 0.70972,-0.82613 1.52752,-1.98614 1.81733,-2.57778 z m -10.02791,2.58737 c -1.16083,-2.29959 -1.88058,-4.6294 -1.88058,-6.08739 0,-1.67943 0.72821,-2.43572 2.3453,-2.43572 3.3218,0 4.00342,2.5251 2.07044,7.67005 -1.06959,2.84692 -1.46201,2.97896 -2.53516,0.85306 z m 2.2444,-1.77623 c 1.34383,-3.94521 0.91207,-5.82471 -1.4096,-6.13611 -0.86847,-0.11648 -1.17643,-0.0331 -1.65893,0.44944 -0.51361,0.51362 -0.57089,0.77305 -0.43035,1.94895 0.25951,2.17126 2.11758,6.53004 2.58134,6.05551 0.10811,-0.11062 0.521,-1.15363 0.91754,-2.31779 z"
       id="path854" />
  </g>
</svg>
