<svg xmlns="http://www.w3.org/2000/svg" version="1.1" xmlns:xlink="http://www.w3.org/1999/xlink" x="0" y="0" viewBox="0 0 512 512" style="enable-background:new 0 0 512 512" xml:space="preserve" class=""><g><path d="M428.718 63.242C387.935 22.46 333.712 0 276.039 0 218.364 0 164.141 22.46 123.36 63.242c-40.362 40.362-62.777 93.883-63.234 150.892l-39.292 78.584a7.514 7.514 0 0 0 2.855 9.804l36.43 21.858v115.98a7.516 7.516 0 0 0 7.515 7.515h72.642v56.611a7.516 7.516 0 0 0 15.03 0V440.36a7.516 7.516 0 0 0-7.515-7.515H75.147v-112.72a7.516 7.516 0 0 0-3.648-6.444l-34.112-20.467 36.966-73.932a7.51 7.51 0 0 0 .794-3.361c0-110.772 90.12-200.892 200.892-200.892s200.892 90.12 200.892 200.892c0 62.247-28.164 119.964-77.27 158.356a7.515 7.515 0 0 0-2.887 5.921v124.287a7.515 7.515 0 1 0 15.03 0V383.823c50.992-41.246 80.157-102.228 80.157-167.901-.001-57.675-22.46-111.898-63.243-152.68z" opacity="1" data-original="#000000" class=""></path><path d="M276.039 88.172c-26.242 0-47.593 21.351-47.593 47.593 0 26.242 21.35 47.593 47.593 47.593 26.242 0 47.593-21.351 47.593-47.593s-21.351-47.593-47.593-47.593zm0 80.157c-17.956 0-32.564-14.609-32.564-32.564s14.607-32.564 32.564-32.564c17.956 0 32.564 14.609 32.564 32.564-.001 17.955-14.608 32.564-32.564 32.564zM276.039 48.094a7.515 7.515 0 0 0-7.515 7.515V71.64a7.515 7.515 0 1 0 15.03 0V55.609a7.515 7.515 0 0 0-7.515-7.515zM250.483 76.474l-8.016-13.883a7.515 7.515 0 0 0-13.015 7.515l8.016 13.883a7.516 7.516 0 0 0 6.515 3.758c5.698 0 9.332-6.367 6.5-11.273zM224.262 97.195l-13.883-8.016a7.515 7.515 0 0 0-7.515 13.015l13.883 8.016c3.833 2.214 8.871.545 10.644-3.499 1.517-3.459.14-7.629-3.129-9.516zM211.913 128.25h-16.031a7.515 7.515 0 1 0 0 15.03h16.031a7.516 7.516 0 0 0 0-15.03zM227.012 164.071a7.513 7.513 0 0 0-10.265-2.751l-13.883 8.016c-3.269 1.887-4.646 6.057-3.129 9.518 1.772 4.044 6.81 5.713 10.644 3.499l13.883-8.016a7.516 7.516 0 0 0 2.75-10.266zM247.733 184.792a7.513 7.513 0 0 0-10.266 2.75l-8.016 13.883c-1.888 3.269-.995 7.569 2.049 9.807 3.565 2.621 8.758 1.534 10.967-2.292l8.016-13.883a7.514 7.514 0 0 0-2.75-10.265zM276.039 192.376a7.515 7.515 0 0 0-7.515 7.515v16.031a7.515 7.515 0 1 0 15.03 0V199.89a7.515 7.515 0 0 0-7.515-7.514zM322.626 201.425l-8.016-13.883a7.515 7.515 0 1 0-13.016 7.515l8.016 13.883c2.208 3.826 7.402 4.914 10.967 2.292 3.043-2.238 3.935-6.537 2.049-9.807zM349.213 169.335l-13.883-8.016a7.515 7.515 0 0 0-7.515 13.016l13.883 8.016c3.835 2.213 8.87.546 10.644-3.499 1.517-3.459.139-7.63-3.129-9.517zM356.195 128.25h-16.031a7.515 7.515 0 1 0 0 15.03h16.031a7.515 7.515 0 1 0 0-15.03zM351.964 91.931a7.513 7.513 0 0 0-10.265-2.751l-13.883 8.016c-3.269 1.888-4.646 6.057-3.129 9.518 1.772 4.044 6.81 5.713 10.644 3.499l13.883-8.016a7.516 7.516 0 0 0 2.75-10.266zM319.874 59.841a7.512 7.512 0 0 0-10.265 2.75l-8.016 13.883c-2.833 4.905.801 11.273 6.501 11.273a7.515 7.515 0 0 0 6.515-3.758l8.016-13.883a7.515 7.515 0 0 0-2.751-10.265zM422.449 323.683l-47.004-47.004c-26.139-26.138-67.611-27.813-95.721-5.034l-34.642-34.642c-9.076-9.077-24.222-9.077-33.299 0a23.545 23.545 0 0 0-4.9 7.145l-12.813-12.813c-9.18-9.18-24.118-9.18-33.299 0a23.545 23.545 0 0 0-4.9 7.145l-7.145-7.145c-9.181-9.18-24.118-9.18-33.299 0-9.077 9.077-9.077 24.222 0 33.299l6.852 6.852a23.087 23.087 0 0 0-6.356 4.092c-9.798 8.918-10.206 24.689-.817 34.079l11.656 11.656c2.895 2.896 7.732 2.895 10.627 0 2.895-2.895 2.896-7.732 0-10.627l-11.656-11.656c-3.539-3.539-3.216-9.588.728-12.695 3.455-2.721 8.6-2.066 11.635.967l33.666 33.667.829.829c.904 12.082 10.969 21.681 23.297 21.775l60.612.456h.058a7.516 7.516 0 0 0 .056-15.03l-60.613-.456c-4.696-.035-8.489-3.885-8.453-8.581.035-4.674 3.849-8.453 8.516-8.453h.064l58.851.443a7.508 7.508 0 0 0 7.107-1.976l22.67-22.671c22.074-22.071 57.989-22.071 80.059 0l47.004 47.004c3.057 3.056 8.217 2.851 11.028-.431 2.518-2.94 2.337-7.459-.398-10.195zm-244.898-18.18-51.497-51.497c-3.283-3.282-3.282-8.762 0-12.045 3.321-3.319 8.724-3.319 12.045 0l54.744 54.744c-6.178.85-11.603 4.107-15.292 8.798zm36.409-8.89a7.22 7.22 0 0 0-.409-.452l-42.155-42.156c-3.281-3.281-3.28-8.761.001-12.044 3.32-3.319 8.724-3.319 12.045 0l28.329 28.329.01.01 26.495 26.495-24.316-.182zm42.81-2.576-34.369-34.37a8.464 8.464 0 0 1-2.487-6.015c0-7.437 9.281-11.28 14.539-6.022l34.361 34.362-12.044 12.045z" opacity="1" data-original="#000000" class=""></path><path d="m371.436 374.692-24.333-24.331a7.518 7.518 0 0 0-6.787-2.055l-55.95 11.19H186.2l-20.471-20.471a7.514 7.514 0 0 0-10.627 0 7.514 7.514 0 0 0 0 10.627l22.671 22.671a7.51 7.51 0 0 0 5.313 2.201H285.11c.495 0 .988-.049 1.474-.146l52.736-10.548 21.487 21.488c3.056 3.056 8.217 2.851 11.028-.431 2.518-2.94 2.336-7.46-.399-10.195z" opacity="1" data-original="#000000" class=""></path></g></svg>