<svg xmlns="http://www.w3.org/2000/svg" version="1.1" x="0" y="0" viewBox="0 0 62 62.202" style="enable-background:new 0 0 512 512" xml:space="preserve" class="">
  <g>
    <path d="m4.05 52.253 1.414 1.414c.944-.944 2.2-1.465 3.536-1.465s2.591.521 3.536 1.465l1.414-1.414c-1.322-1.322-3.08-2.051-4.95-2.051s-3.627.729-4.95 2.051zM9 54.202c-1.654 0-3 1.346-3 3s1.346 3 3 3 3-1.346 3-3-1.346-3-3-3zm0 4a1.001 1.001 0 0 1 0-2 1.001 1.001 0 0 1 0 2z" opacity="1" class="">
    </path>
    <path d="m58.238 47.148 1.208-1.812A3.293 3.293 0 0 0 60 43.505a3.306 3.306 0 0 0-3.303-3.303h-1.111L54 41.788l-1.586-1.586h-1.111A3.306 3.306 0 0 0 48 43.505c0 .654.192 1.288.555 1.832l1.208 1.812-.623.779-5.14-5.14V32.202h3a1 1 0 0 0 .555-1.832l-8.586-5.724L50.606 13.01l.394.525v1.667c0 1.654 1.346 3 3 3h2c1.654 0 3-1.346 3-3v-1.667l1.6-2.133a7.038 7.038 0 0 0 1.4-4.2c0-3.859-3.14-7-7-7s-7 3.141-7 7c0 1.503.496 2.99 1.395 4.191L37.272 23.515l-3.886-2.591A4.2 4.2 0 0 0 32 20.34v-4.139c1.654 0 3-1.346 3-3v-1h1c1.654 0 3-1.346 3-3v-2c0-1.654-1.346-3-3-3h-1v-1c0-1.654-1.346-3-3-3h-2c-1.654 0-3 1.346-3 3v1h-1c-1.654 0-3 1.346-3 3v2c0 1.654 1.346 3 3 3h1v1c0 1.654 1.346 3 3 3v4.139a4.214 4.214 0 0 0-1.387.584l-3.886 2.59-11.418-11.416A15.48 15.48 0 0 0 16 3.392v-1.19h-1.395c-2.16 0-4.252-.634-6.051-1.832L8 0l-.555.37a10.878 10.878 0 0 1-6.05 1.832H0v1.189c0 4.627 2.038 8.979 5.591 11.938a3.765 3.765 0 0 0 4.817.001 15.636 15.636 0 0 0 1.664-1.641L23.03 24.647l-8.585 5.724A.999.999 0 0 0 15 32.203h3v10.586l-4.424 4.424c-4.059-1.854-9.018-1.125-12.354 2.211l1.414 1.414c3.51-3.51 9.219-3.51 12.729 0l1.414-1.414a10.908 10.908 0 0 0-1.41-1.176l4.045-4.045H30v4.786a5.069 5.069 0 0 0-2.702-.786h-.188A5.116 5.116 0 0 0 22 53.312c0 1.493.65 2.907 1.784 3.88l4.806 4.119a3.703 3.703 0 0 0 4.82 0l4.806-4.119A5.107 5.107 0 0 0 40 53.312a5.115 5.115 0 0 0-5.11-5.109h-.188a5.06 5.06 0 0 0-2.702.786v-4.786h10.586l5.296 5.297-.203.254A7.684 7.684 0 0 0 46 54.539c0 4.226 3.438 7.663 7.663 7.663h.675c4.225 0 7.663-3.438 7.663-7.663a7.693 7.693 0 0 0-1.679-4.787zM56 16.202h-2c-.551 0-1-.448-1-1v-1h4v1c0 .552-.449 1-1 1zm-2-9a1.001 1.001 0 1 1 1 1c-.551 0-1-.448-1-1zm1-5c2.757 0 5 2.243 5 5a5.028 5.028 0 0 1-1 3l-1.499 2H56v-2.184a2.996 2.996 0 0 0 2-2.816c0-1.654-1.346-3-3-3s-3 1.346-3 3c0 1.302.839 2.402 2 2.816v2.184h-1.5L51 10.201a5.023 5.023 0 0 1-1-2.999c0-2.757 2.243-5 5-5zm-26 11v-3h-3c-.551 0-1-.448-1-1v-2c0-.552.449-1 1-1h3v-3c0-.552.449-1 1-1h2c.551 0 1 .448 1 1v3h3c.551 0 1 .448 1 1v2c0 .552-.449 1-1 1h-3v3c0 .552-.449 1-1 1h-2c-.551 0-1-.448-1-1zm-19.873.592c-.631.525-1.624.526-2.255-.001a13.493 13.493 0 0 1-4.849-9.606A12.844 12.844 0 0 0 8 2.384a12.844 12.844 0 0 0 5.977 1.803 13.494 13.494 0 0 1-4.85 9.607zm25.575 36.408h.188a3.11 3.11 0 0 1 2.024 5.471l-4.806 4.119c-.616.527-1.601.527-2.217 0l-4.805-4.119A3.107 3.107 0 0 1 24 53.312a3.112 3.112 0 0 1 3.11-3.109h.188c.831 0 1.612.323 2.199.911L31 52.616l1.504-1.503a3.082 3.082 0 0 1 2.198-.911zm-4.98-27.613a2.34 2.34 0 0 1 2.555 0l11.42 7.613H18.303zM28 42.202h-4v-4c0-1.103.897-2 2-2s2 .897 2 2zm2 0v-4c0-2.206-1.794-4-4-4s-4 1.794-4 4v4h-2v-10h22v10zm21.303 0h.283L54 44.616l2.414-2.414h.283a1.304 1.304 0 0 1 1.084 2.026l-1.316 1.975h-4.93l-1.316-1.975a1.302 1.302 0 0 1 1.084-2.026zm3.034 18h-.675a5.669 5.669 0 0 1-5.663-5.663c0-1.28.441-2.537 1.241-3.537l2.24-2.8h5.039l2.239 2.799a5.69 5.69 0 0 1 1.241 3.538 5.667 5.667 0 0 1-5.662 5.663z" opacity="1" class="">
    </path>
    <path d="M31 23.202c-1.654 0-3 1.346-3 3s1.346 3 3 3 3-1.346 3-3-1.346-3-3-3zm0 4a1.001 1.001 0 0 1 0-2 1.001 1.001 0 0 1 0 2zM32 40.202h8v-6h-8zm2-4h4v2h-4z" opacity="1" class="">
    </path>
    </g>
    </svg>