<svg xmlns="http://www.w3.org/2000/svg" version="1.1" xmlns:xlink="http://www.w3.org/1999/xlink" x="0" y="0" viewBox="0 0 66 66" style="enable-background:new 0 0 512 512" xml:space="preserve" class=""><g><path d="m64.8 9.5.1 19.1h-8.2c.5-.8.8-1.8.8-2.8 0-3.6-3.5-6.5-7.4-5.5-2.2.5-3.8 2.3-4.2 4.4-.2 1.4 0 2.8.7 3.9h-8.2v-7.9c-1.3.7-3 1-4.7.5-2-.6-3.5-2.2-3.9-4.2-.8-3.7 2-7 5.7-6.9 1.1 0 2.1.3 2.9.8V3l19.8.1c3.6-.2 6.6 2.7 6.6 6.4zM18.8 16.8c.4 1.9 2 3.6 3.9 4.2 1.7.5 3.4.3 4.7-.5v7.9h-8.1c.5.8.8 1.8.8 2.8 0 3.6-3.4 6.3-7.2 5.5-2.2-.5-3.9-2.2-4.4-4.3-.3-1.5-.1-2.9.6-4.1H1V9.2c0-3.6 2.9-6.6 6.6-6.5l19.8.1v7.9c-.9-.5-1.9-.8-2.9-.8-3.7-.1-6.6 3.2-5.7 6.9z" style="stroke-linecap:round;stroke-linejoin:round;stroke-miterlimit:10;stroke-width:1.5" fill="none" stroke="#000000" stroke-linecap="round" stroke-linejoin="round" stroke-miterlimit="10" stroke-width="1." data-original="#000000"></path><g><path d="M27.6 60.2V65zM8.6 43.3c-.1-.3-.1-.7-.1-1h.7c-.2.4-.4.8-.5 1.3 0-.1-.1-.2-.1-.3zM20 43.7c-.1-.5-.3-.9-.6-1.3h.8c0 .4-.1.9-.2 1.3z" opacity="1" data-original="#b3acf9"></path></g><path d="m64.9 39.5.1 19.1c0 3.6-2.9 6.6-6.6 6.5L38.6 65v-7.9c.9.5 1.9.8 2.9.8 3.8 0 6.7-3.4 5.6-7.2-.6-2.1-2.4-3.7-4.6-4.1-1.5-.2-2.8 0-4 .7v-7.9h8.2c-.7-1.1-1-2.4-.7-3.9.4-2.1 2-3.9 4.2-4.4 3.9-1 7.4 1.9 7.4 5.5 0 1-.3 2-.8 2.8zM36.1 50.6c1.1 3.8-1.8 7.2-5.6 7.2-1.1 0-2.1-.3-2.9-.8v7.9H7.8c-3.7 0-6.6-3-6.7-6.6V39.2h8.1c-.7 1.2-1 2.6-.6 4.1.5 2.1 2.2 3.8 4.4 4.3 3.8.8 7.2-1.9 7.2-5.5 0-1-.3-2-.8-2.8h8.1v7.9c1.1-.6 2.5-.9 4-.7 2.2.4 4.1 2.1 4.6 4.1z" style="stroke-linecap:round;stroke-linejoin:round;stroke-miterlimit:10;stroke-width:1.5" fill="none" stroke="#000000" stroke-linecap="round" stroke-linejoin="round" stroke-miterlimit="10" stroke-width="1." data-original="#000000"></path></g></svg>