<svg xmlns="http://www.w3.org/2000/svg" version="1.1" xmlns:xlink="http://www.w3.org/1999/xlink" x="0" y="0" viewBox="0 0 64 64" style="enable-background:new 0 0 512 512" xml:space="preserve" class=""><g><path d="M28 64C14.21 64 3 52.79 3 39s11.21-25 25-25c6.03 0 11.85 2.17 16.39 6.12.42.36.46.99.1 1.41s-1 .46-1.41.1A23.007 23.007 0 0 0 28 16C15.32 16 5 26.32 5 39s10.32 23 23 23 23-10.32 23-23c0-3.32-.69-6.53-2.06-9.53-.23-.5 0-1.1.5-1.33s1.09 0 1.32.5C52.25 31.9 53 35.39 53 39c0 13.79-11.21 25-25 25z"  opacity="1" data-original="#000000" class=""></path><path d="M19.43 56h-.51A1.92 1.92 0 0 1 17 54.08v-2.7l-1.44-1.4c-.36-.36-.56-.85-.56-1.36v-4.05l-4.94-2.42C9.41 41.82 9 41.17 9 40.43v-2.51c0-1.06.86-1.92 1.92-1.92H11v-.51L8.85 34.1c-.53-.36-.85-.95-.85-1.6v-3.13l-.71-.67a.996.996 0 1 1 1.41-1.41l.73.73c.36.36.56.85.56 1.36v3.13l2.15 1.39c.53.36.85.95.85 1.6v.59c0 1.06-.86 1.92-1.92 1.92h-.08v2.43l4.94 2.42c.65.33 1.06.98 1.06 1.72v4.05l1.44 1.4c.36.36.56.85.56 1.36v2.62h.43l1.61-3.31c.09-.18.21-.35.36-.5l1.63-1.63-.02-2.1c0-.6.29-1.17.77-1.53l3.27-2.45-.03-2.48h-2.08a1.92 1.92 0 0 1-1.92-1.92v-.08h-2.08a1.92 1.92 0 0 1-1.92-1.92v-1.08h-1.72c-.38 0-.75-.11-1.06-.32l-2.36-1.57c-.53-.36-.85-.95-.85-1.6v-2.59c0-1.06.86-1.92 1.92-1.92h2.78l3.34-2.52-.03-.48h-.09a1.92 1.92 0 0 1-1.92-1.92v-2.7c0-.55.45-1 1-1s1 .45 1 1v2.62h.08c1.06 0 1.92.86 1.92 1.92v.62c0 .6-.29 1.17-.77 1.53l-3.39 2.54c-.33.25-.74.38-1.15.38h-2.69v2.51l2.32 1.5h1.76c1.06-.01 1.92.85 1.92 1.9v1.08h2.08c1.06 0 1.92.86 1.92 1.92v.08h2.08c1.06 0 1.92.86 1.92 1.92v2.62c0 .6-.29 1.17-.77 1.53l-3.27 2.45.03 2.1c0 .5-.21 1-.56 1.36l-1.62 1.62-1.66 3.34c-.33.65-.98 1.06-1.72 1.06zM27 39.92zm-6-16zM44.75 51.79a.96.96 0 0 1-.7-.29l-.46-.45c-.36-.35-.57-.85-.57-1.36l-.02-3.4-2.62-3.46c-.25-.33-.38-.74-.38-1.15V38.2c0-.3.07-.59.2-.86l.65-1.3c.33-.65.98-1.06 1.72-1.06H44v-.43c0-.73.41-1.39 1.06-1.72l.99-.49-.04-1.36h-.79l-1.36.69c-.54.27-1.18.27-1.71 0l-1.4-.7h-4.83c-1.06 0-1.92-.85-1.92-1.91v-1.51c0-.73.41-1.39 1.06-1.72l.99-.49-.05-1.08c0-.38.11-.75.32-1.06l1.39-2.09c-.55-.58-.67-1.45-.31-2.17l.7-1.41c.25-.49.85-.69 1.34-.45.49.25.69.85.45 1.34l-.7 1.41c.63.55.73 1.57.22 2.33l-1.43 2.14v1.11c.01.73-.39 1.39-1.05 1.72l-.99.49.04 1.36h4.79c.3 0 .59.07.86.2l1.4.7 1.32-.7c.27-.13.56-.2.86-.2h.87c1.06 0 1.92.86 1.92 1.92v1.51c0 .73-.41 1.39-1.06 1.72l-.99.49.05.44c0 1.06-.86 1.92-1.92 1.92h-1.51l-.58 1.25v3.44l2.63 3.46c.24.32.38.73.38 1.14l.02 3.4.43.39c.39.39.4 1.02.01 1.41-.2.2-.45.3-.71.3zM46 30.91zm-10-1.84zM55.55 19.96c-.16 0-.32-.02-.48-.05l-12.6-2.5c-.77-.15-1.48-.45-2.13-.9a5.827 5.827 0 0 1-1.6-1.68l-6.91-11a2.52 2.52 0 0 1 .04-2.74c.56-.83 1.55-1.24 2.52-1.05l12.6 2.5c.77.15 1.48.46 2.13.9s1.18 1.01 1.6 1.68l6.91 11c.53.84.51 1.91-.04 2.74-.47.7-1.24 1.1-2.05 1.1zM33.52 2.77l6.91 11c.27.44.63.81 1.05 1.1s.88.49 1.38.58l12.6 2.5c.18.03.37-.04.47-.2.11-.17.12-.39 0-.56l-6.91-11c-.27-.44-.63-.81-1.05-1.1s-.88-.49-1.38-.59L33.99 2a.46.46 0 0 0-.47.2c-.11.17-.12.39 0 .56z"  opacity="1" data-original="#000000" class=""></path><path d="M50.93 21a.999.999 0 0 1-.83-1.56l.98-1.47c.31-.46.93-.58 1.39-.27s.58.93.27 1.39l-.98 1.47c-.19.29-.51.44-.83.44zM30.46 13a.999.999 0 0 1-.83-1.56l3.81-5.68c.31-.46.93-.58 1.39-.27s.58.93.27 1.39l-3.81 5.68c-.19.29-.51.44-.83.44zM48 23c-.55 0-1-.45-1-1v-4.79l-2.92-6.81a.999.999 0 0 1 .52-1.31c.51-.22 1.1.02 1.31.53l3 7c.05.12.08.26.08.39v5c0 .55-.45 1-1 1z"  opacity="1" data-original="#000000" class=""></path><path d="M48 27c-1.65 0-3-1.35-3-3s1.35-3 3-3 3 1.35 3 3c0 .55-.45 1-1 1s-1-.45-1-1-.45-1-1-1-1 .45-1 1 .45 1 1 1 1 .45 1 1-.45 1-1 1z"  opacity="1" data-original="#000000" class=""></path></g></svg>