<svg xmlns="http://www.w3.org/2000/svg" version="1.1" xmlns:xlink="http://www.w3.org/1999/xlink" x="0" y="0" viewBox="0 0 512 512" style="enable-background:new 0 0 512 512" xml:space="preserve" class=""><g><path stroke="#ffffff" d="M400 288c-61.76 0-112 50.24-112 112s50.24 112 112 112 112-50.24 112-112-50.24-112-112-112zm15.54 113.59c0 8.28-6.72 15-15 15h-33c-8.28 0-15-6.72-15-15s6.72-15 15-15h18v-28c0-8.28 6.72-15 15-15s15 6.72 15 15z" opacity="1"></path><path d="M400 258c14.62 0 28.72 2.22 42 6.34v-93.82C418.57 198.31 383.52 216 344.41 216h-35.87v6.3c0 37.2-30.27 67.46-67.47 67.46h-40.14c-37.2 0-67.47-30.26-67.47-67.46V216H97.59C58.48 216 23.43 198.31 0 170.52V387c0 8.28 6.72 15 15 15h243.01c-.01-.66-.01-1.33-.01-2 0-78.3 63.7-142 142-142z" opacity="1" data-original="#000000"></path><path d="M163.46 222.3c0 20.66 16.81 37.46 37.47 37.46h40.14c20.66 0 37.47-16.8 37.47-37.46V216H163.46zM97.59 186h246.82c53.81 0 97.59-43.78 97.59-97.59V75c0-8.28-6.72-15-15-15H306V44.88C306 20.13 285.87 0 261.12 0h-80.24C156.13 0 136 20.13 136 44.88V60H15C6.72 60 0 66.72 0 75v13.41C0 142.22 43.78 186 97.59 186zM166 44.88c0-8.2 6.68-14.88 14.88-14.88h80.24c8.2 0 14.88 6.68 14.88 14.88V60H166z" opacity="1"></path></g></svg>