<svg xmlns="http://www.w3.org/2000/svg" version="1.1" xmlns:xlink="http://www.w3.org/1999/xlink" x="0" y="0" viewBox="0 0 512 512" style="enable-background:new 0 0 512 512" xml:space="preserve" class=""><g><path d="M471.047 266.557v-112.73c0-14.62-11.895-26.515-26.515-26.515H307.99v-19.444c0-23.573-19.178-42.751-42.751-42.751h-59.431c-23.573 0-42.751 19.178-42.751 42.751v19.444H26.515C11.895 127.312 0 139.207 0 153.827v257.375c0 14.62 11.895 26.515 26.515 26.515h343.95c12.709 5.879 26.853 9.167 41.751 9.167 55.021 0 99.784-44.763 99.784-99.784 0-33.038-16.144-62.373-40.953-80.543zm-58.831 172.327c-50.61 0-91.784-41.174-91.784-91.784 0-50.609 41.174-91.784 91.784-91.784S504 296.49 504 347.1s-41.174 91.784-91.784 91.784zm-79.89-164.219v-13.813h29.761a100.537 100.537 0 0 0-27.181 23.236 18.526 18.526 0 0 1-2.58-9.423zm37.327-21.813h-37.327v-16.886h37.327zm93.394 8.415a99.294 99.294 0 0 0-21.615-9.584 62.478 62.478 0 0 0 21.615-22.445zm-291.99-153.399c0-19.162 15.589-34.751 34.751-34.751h59.431c19.162 0 34.751 15.589 34.751 34.751v19.444h-16.979v-19.444c0-9.8-7.973-17.773-17.773-17.773h-59.43c-9.8 0-17.773 7.973-17.773 17.773v19.444h-16.979v-19.444zm103.954 19.444h-78.976v-19.444c0-5.389 4.384-9.773 9.773-9.773h59.43c5.389 0 9.773 4.384 9.773 9.773zM8 153.827c0-10.209 8.306-18.515 18.515-18.515h418.018c10.209 0 18.515 8.306 18.515 18.515v44.996c0 22.551-13.893 41.91-33.565 49.992a99.964 99.964 0 0 0-17.265-1.499 99.333 99.333 0 0 0-32.774 5.536h-1.789v-20.886a4 4 0 0 0-4-4h-45.327a4 4 0 0 0-4 4v20.886H146.721v-20.886a4 4 0 0 0-4-4H97.393a4 4 0 0 0-4 4v20.886H62.028C32.237 252.852 8 228.614 8 198.823zm93.393 107.025h37.328v13.813c0 10.291-8.373 18.664-18.664 18.664-10.292 0-18.664-8.373-18.664-18.664zm0-8v-16.886h37.328v16.886zM26.515 429.717C16.306 429.717 8 421.411 8 411.202V229.238c10.654 18.851 30.873 31.614 54.028 31.614h31.365v13.813c0 14.702 11.961 26.664 26.664 26.664 14.702 0 26.664-11.962 26.664-26.664v-13.813h177.605v13.813c0 6.09 2.057 11.706 5.506 16.2-10.972 16.023-17.4 35.391-17.4 56.234 0 34.324 17.421 64.654 43.885 82.617H26.515z" opacity="1" class=""></path><path d="M412.216 265.306c-45.102 0-81.794 36.692-81.794 81.794s36.692 81.794 81.794 81.794 81.794-36.692 81.794-81.794-36.692-81.794-81.794-81.794zm0 155.588c-40.69 0-73.794-33.104-73.794-73.794s33.104-73.794 73.794-73.794S486.01 306.41 486.01 347.1s-33.104 73.794-73.794 73.794z"  opacity="1" class=""></path><path d="m436.204 317.455-23.988 23.987-39.24-39.239a4 4 0 1 0-5.657 5.656l42.068 42.068c.781.781 1.805 1.172 2.829 1.172s2.047-.391 2.829-1.172l26.816-26.816a4 4 0 1 0-5.657-5.656z" opacity="1" class=""></path></g></svg>